# 3ds Max Wavefront OBJ Exporter v0.97b - (c)2007 guruware
# File Created: 26.05.2017 15:04:36

mtllib border_column.mtl

#
# object chineseSmall
#

v  -32.8514 305.9288 -50.5689
v  32.8510 305.9288 -50.5689
v  32.8510 0.0000 -50.5689
v  -32.8514 0.0000 -50.5689
v  -32.8514 0.0001 52.3571
v  -32.8514 305.9288 52.3570
v  16.6995 305.9442 -21.7325
v  -16.6998 305.9442 -21.7323
v  -17.4877 305.9442 23.5204
v  16.6993 325.6011 -21.7325
v  -16.6997 325.6010 -21.7323
v  -16.6998 325.6010 23.5204
v  30.8948 340.7531 -33.6439
v  -30.8949 340.7528 -33.6437
v  -30.8949 340.7531 35.4316
v  10.4952 357.8792 -12.7268
v  -10.4952 357.8792 -12.7267
v  -10.4952 357.8792 14.5146
v  32.8511 305.9287 52.3570
v  32.8511 0.0000 52.3570
v  16.6993 305.9442 23.5204
v  16.6992 325.6011 23.5204
v  30.8947 340.7531 35.4315
v  10.4950 357.8792 14.5147
# 24 vertices

vn 0.0000 0.0000 -1.0000
vn -1.0000 0.0000 -0.0000
vn 0.0000 1.0000 -0.0009
vn -0.0005 1.0000 -0.0005
vn -0.0009 1.0000 -0.0000
vn 0.0000 -0.7436 -0.6685
vn -0.6685 -0.7436 -0.0000
vn 0.0000 0.8956 -0.4448
vn -0.4448 0.8956 -0.0000
vn 1.0000 0.0000 -0.0000
vn 0.0000 0.0000 1.0000
vn 0.0005 1.0000 0.0005
vn 0.0009 1.0000 -0.0000
vn 0.0000 1.0000 0.0009
vn 0.6685 -0.7436 -0.0000
vn 0.0000 -0.7436 0.6685
vn 0.4448 0.8956 -0.0000
vn 0.0000 0.8956 0.4448
vn 0.0000 -1.0000 -0.0000
vn 0.0000 1.0000 -0.0000
# 20 vertex normals

vt 0.3247 0.3655 0.0000
vt 0.2883 0.3655 0.0000
vt 0.2883 0.3488 0.0000
vt 0.3247 0.3488 0.0000
vt 0.3611 0.3488 0.0000
vt 0.3611 0.3655 0.0000
vt 0.2973 0.3745 0.0000
vt 0.3158 0.3745 0.0000
vt 0.3336 0.3745 0.0000
vt 0.3521 0.3745 0.0000
vt 0.2973 0.3839 0.0000
vt 0.3158 0.3839 0.0000
vt 0.3336 0.3839 0.0000
vt 0.3521 0.3839 0.0000
vt 0.2894 0.3945 0.0000
vt 0.3236 0.3945 0.0000
vt 0.3258 0.3945 0.0000
vt 0.3600 0.3945 0.0000
vt 0.3007 0.4071 0.0000
vt 0.3123 0.4071 0.0000
vt 0.3371 0.4071 0.0000
vt 0.3487 0.4071 0.0000
vt 0.1976 0.2035 0.0000
vt 0.1976 0.2202 0.0000
vt 0.1612 0.2202 0.0000
vt 0.1612 0.2035 0.0000
vt 0.1249 0.2035 0.0000
vt 0.1249 0.2202 0.0000
vt 0.1887 0.2291 0.0000
vt 0.1702 0.2291 0.0000
vt 0.1523 0.2291 0.0000
vt 0.1338 0.2291 0.0000
vt 0.1887 0.2385 0.0000
vt 0.1702 0.2385 0.0000
vt 0.1338 0.2385 0.0000
vt 0.1523 0.2385 0.0000
vt 0.1966 0.2491 0.0000
vt 0.1623 0.2491 0.0000
vt 0.1602 0.2491 0.0000
vt 0.1259 0.2491 0.0000
vt 0.1853 0.2617 0.0000
vt 0.1736 0.2617 0.0000
vt 0.1489 0.2617 0.0000
vt 0.1372 0.2617 0.0000
# 44 texture coords

g chineseSmall
usemtl _border_Columnlambert17SG
s off
f 1/1/1 2/2/1 3/3/1 4/4/1 
f 1/1/2 4/4/2 5/5/2 6/6/2 
f 7/7/3 2/2/3 1/1/4 8/8/4 
f 8/9/4 1/1/4 6/6/5 9/10/5 
f 10/11/1 7/7/1 8/8/1 11/12/1 
f 11/13/2 8/9/2 9/10/2 12/14/2 
f 13/15/6 10/11/6 11/12/6 14/16/6 
f 14/17/7 11/13/7 12/14/7 15/18/7 
f 16/19/8 13/15/8 14/16/8 17/20/8 
f 17/21/9 14/17/9 15/18/9 18/22/9 
f 3/23/10 2/24/10 19/25/10 20/26/10 
f 5/27/11 20/26/11 19/25/11 6/28/11 
f 19/25/12 2/24/13 7/29/13 21/30/12 
f 6/28/14 19/25/12 21/31/12 9/32/14 
f 21/30/10 7/29/10 10/33/10 22/34/10 
f 12/35/11 9/32/11 21/31/11 22/36/11 
f 22/34/15 10/33/15 13/37/15 23/38/15 
f 12/35/16 22/36/16 23/39/16 15/40/16 
f 23/38/17 13/37/17 16/41/17 24/42/17 
f 15/40/18 23/39/18 24/43/18 18/44/18 
f 3/3/19 20/26/19 5/27/19 4/4/19 
f 18/22/20 24/43/20 16/41/20 17/20/20 
# 22 polygons

